HIERARCHY
ROOT ROOT
{
	OFFSET 0 0 0
	CHANNELS 6 Xposition Yposition Zposition Zrotation Yrotation Xrotation
	JOINT RightHand
	{
		OFFSET 10.299006134 24.8929386 -0.033801619
		CHANNELS 6 Xposition Yposition Zposition Zrotation Yrotation Xrotation
		JOINT RightHandThumb1
		{
			OFFSET -2.86730528 3.95955896 2.94429684
			CHANNELS 6 Xposition Yposition Zposition Zrotation Yrotation Xrotation
			JOINT RightHandThumb2
			{
				OFFSET 2.37990389e-06 3.35039663 -4.45964906e-06
				CHANNELS 6 Xposition Yposition Zposition Zrotation Yrotation Xrotation
				JOINT RightHandThumb3
				{
					OFFSET 5.26579971e-06 3.75652218 5.93257118e-06
					CHANNELS 6 Xposition Yposition Zposition Zrotation Yrotation Xrotation
					JOINT RightHandThumb4
					{
						OFFSET -1.35920336e-05 3.14734125 5.13127907e-06
						CHANNELS 6 Xposition Yposition Zposition Zrotation Yrotation Xrotation
						End Site
						{
							OFFSET 0 0 0
						}
					}
				}
			}
		}
		JOINT RightHandIndex1
		{
			OFFSET -0.0867625326 10.0308952 2.34528875
			CHANNELS 6 Xposition Yposition Zposition Zrotation Yrotation Xrotation
			JOINT RightHandIndex2
			{
				OFFSET -4.51679851e-06 4.06108856 4.42271084e-06
				CHANNELS 6 Xposition Yposition Zposition Zrotation Yrotation Xrotation
				JOINT RightHandIndex3
				{
					OFFSET 3.63161461e-06 3.2488625 -1.63274558e-06
					CHANNELS 6 Xposition Yposition Zposition Zrotation Yrotation Xrotation
					JOINT RightHandIndex4
					{
						OFFSET 7.70182396e-06 2.63971233 1.93934171e-06
						CHANNELS 6 Xposition Yposition Zposition Zrotation Yrotation Xrotation
						End Site
						{
							OFFSET 0 0 0
						}
					}
				}
			}
		}
		JOINT RightHandMiddle1
		{
			OFFSET 0.104102969 9.50296307 0.00677372236
			CHANNELS 6 Xposition Yposition Zposition Zrotation Yrotation Xrotation
			JOINT RightHandMiddle2
			{
				OFFSET -4.08745426e-06 4.56873083 1.0638857e-05
				CHANNELS 6 Xposition Yposition Zposition Zrotation Yrotation Xrotation
				JOINT RightHandMiddle3
				{
					OFFSET 2.46053651e-06 3.65498304 9.87809804e-07
					CHANNELS 6 Xposition Yposition Zposition Zrotation Yrotation Xrotation
					JOINT RightHandMiddle4
					{
						OFFSET -2.28342173e-06 2.74124193 5.30245552e-06
						CHANNELS 6 Xposition Yposition Zposition Zrotation Yrotation Xrotation
						End Site
						{
							OFFSET 0 0 0
						}
					}
				}
			}
		}
		JOINT RightHandRing1
		{
			OFFSET 0.0867470726 8.92170906 -2.26744461
			CHANNELS 6 Xposition Yposition Zposition Zrotation Yrotation Xrotation
			JOINT RightHandRing2
			{
				OFFSET -1.77521828e-06 4.06110334 3.47415152e-06
				CHANNELS 6 Xposition Yposition Zposition Zrotation Yrotation Xrotation
				JOINT RightHandRing3
				{
					OFFSET 2.47868387e-06 3.65496969 1.62214401e-05
					CHANNELS 6 Xposition Yposition Zposition Zrotation Yrotation Xrotation
					JOINT RightHandRing4
					{
						OFFSET 3.25923997e-06 2.74124193 2.02966858e-07
						CHANNELS 6 Xposition Yposition Zposition Zrotation Yrotation Xrotation
						End Site
						{
							OFFSET 0 0 0
						}
					}
				}
			}
		}
		JOINT RightHandPinky1
		{
			OFFSET -0.173488364 7.97698593 -4.46720743
			CHANNELS 6 Xposition Yposition Zposition Zrotation Yrotation Xrotation
			JOINT RightHandPinky2
			{
				OFFSET 2.65949074e-06 3.35041618 -4.9747573e-06
				CHANNELS 6 Xposition Yposition Zposition Zrotation Yrotation Xrotation
				JOINT RightHandPinky3
				{
					OFFSET 6.13296152e-06 2.84275675 -5.15320697e-06
					CHANNELS 6 Xposition Yposition Zposition Zrotation Yrotation Xrotation
					JOINT RightHandPinky4
					{
						OFFSET -1.61533808e-05 2.63971496 6.2289264e-06
						CHANNELS 6 Xposition Yposition Zposition Zrotation Yrotation Xrotation
						End Site
						{
							OFFSET 0 0 0
						}
					}
				}
			}
		}
	}
	JOINT LeftHand
	{
		OFFSET -10.17407835 25.9241371 -0.520493567
		CHANNELS 6 Xposition Yposition Zposition Zrotation Yrotation Xrotation
		JOINT LeftHandThumb1
		{
			OFFSET 2.8673296 3.95956898 2.94428039
			CHANNELS 6 Xposition Yposition Zposition Zrotation Yrotation Xrotation
			JOINT LeftHandThumb2
			{
				OFFSET -9.00383475e-06 3.35040426 -9.71211558e-06
				CHANNELS 6 Xposition Yposition Zposition Zrotation Yrotation Xrotation
				JOINT LeftHandThumb3
				{
					OFFSET -2.92446157e-06 3.75651121 3.16099873e-07
					CHANNELS 6 Xposition Yposition Zposition Zrotation Yrotation Xrotation
					JOINT LeftHandThumb4
					{
						OFFSET 1.71864109e-06 3.09999609 -2.96464896e-06
						CHANNELS 6 Xposition Yposition Zposition Zrotation Yrotation Xrotation
						End Site
						{
							OFFSET 0 0 0
						}
					}
				}
			}
		}
		JOINT LeftHandIndex1
		{
			OFFSET 0.0867439508 10.0309238 2.34528303
			CHANNELS 6 Xposition Yposition Zposition Zrotation Yrotation Xrotation
			JOINT LeftHandIndex2
			{
				OFFSET -2.28319377e-07 4.06110811 -5.56616397e-06
				CHANNELS 6 Xposition Yposition Zposition Zrotation Yrotation Xrotation
				JOINT LeftHandIndex3
				{
					OFFSET 1.99676651e-05 3.24887204 -5.6258732e-06
					CHANNELS 6 Xposition Yposition Zposition Zrotation Yrotation Xrotation
					JOINT LeftHandIndex4
					{
						OFFSET 5.13682881e-06 2.63971233 -9.48777323e-06
						CHANNELS 6 Xposition Yposition Zposition Zrotation Yrotation Xrotation
						End Site
						{
							OFFSET 0 0 0
						}
					}
				}
			}
		}
		JOINT LeftHandMiddle1
		{
			OFFSET -0.104108177 9.50298786 0.00677218614
			CHANNELS 6 Xposition Yposition Zposition Zrotation Yrotation Xrotation
			JOINT LeftHandMiddle2
			{
				OFFSET 1.47134925e-06 4.56874275 -1.24560065e-05
				CHANNELS 6 Xposition Yposition Zposition Zrotation Yrotation Xrotation
				JOINT LeftHandMiddle3
				{
					OFFSET 4.99734779e-06 3.65497184 -4.94244479e-06
					CHANNELS 6 Xposition Yposition Zposition Zrotation Yrotation Xrotation
					JOINT LeftHandMiddle4
					{
						OFFSET -2.40191638e-06 2.74124122 1.06904072e-05
						CHANNELS 6 Xposition Yposition Zposition Zrotation Yrotation Xrotation
						End Site
						{
							OFFSET 0 0 0
						}
					}
				}
			}
		}
		JOINT LeftHandRing1
		{
			OFFSET -0.0867570564 8.92171478 -2.26744914
			CHANNELS 6 Xposition Yposition Zposition Zrotation Yrotation Xrotation
			JOINT LeftHandRing2
			{
				OFFSET -2.28319377e-07 4.06110811 -5.56616397e-06
				CHANNELS 6 Xposition Yposition Zposition Zrotation Yrotation Xrotation
				JOINT LeftHandRing3
				{
					OFFSET 7.4249283e-06 3.65498924 -4.20031256e-06
					CHANNELS 6 Xposition Yposition Zposition Zrotation Yrotation Xrotation
					JOINT LeftHandRing4
					{
						OFFSET 2.27324879e-06 2.74123645 6.59297984e-06
						CHANNELS 6 Xposition Yposition Zposition Zrotation Yrotation Xrotation
						End Site
						{
							OFFSET 0 0 0
						}
					}
				}
			}
		}
		JOINT LeftHandPinky1
		{
			OFFSET 0.173492044 7.97702932 -4.46721792
			CHANNELS 6 Xposition Yposition Zposition Zrotation Yrotation Xrotation
			JOINT LeftHandPinky2
			{
				OFFSET 1.20313489e-05 3.3504045 7.35300227e-06
				CHANNELS 6 Xposition Yposition Zposition Zrotation Yrotation Xrotation
				JOINT LeftHandPinky3
				{
					OFFSET -1.53201018e-05 2.84276652 8.0555592e-06
					CHANNELS 6 Xposition Yposition Zposition Zrotation Yrotation Xrotation
					JOINT LeftHandPinky4
					{
						OFFSET -1.54051917e-06 2.63970852 -6.76970648e-06
						CHANNELS 6 Xposition Yposition Zposition Zrotation Yrotation Xrotation
						End Site
						{
							OFFSET 0 0 0
						}
					}
				}
			}
		}
	}
}
MOTION
Frames: 4
Frame Time: 0.016667
0 0 0 0 0 0 -10.299006134 24.8929386 -0.033801619 -0.270265728 4.00737095 -7.51528549 -2.86730528 3.95955896 2.94429684 -2.76948268 -5.4327135 47.5254147 2.37990389e-06 3.35039663 -4.45964906e-06 -4.87159967 -2.20631194 -38.828476 5.26579971e-06 3.75652218 5.93257118e-06 -1.65521486e-31 -3.97569335e-15 4.77083202e-15 -1.35920336e-05 3.14734125 5.13127907e-06 -4.96564459e-32 -3.57812402e-15 1.59027734e-15 -0.0867625326 10.0308952 2.34528875 6.80957985 0.0148239899 2.92639136 -4.51679851e-06 4.06108856 4.42271084e-06 -2.84506732e-05 2.32226444e-06 -5.27600435e-07 3.63161461e-06 3.2488625 -1.63274558e-06 -3.85694289 4.39274608e-07 -0.000107175307 7.70182396e-06 2.63971233 1.93934171e-06 -5.87120778e-07 7.67349024e-07 -2.65565775e-07 0.104102969 9.50296307 0.00677372236 6.80957985 0.0148239899 2.92639136 -4.08745426e-06 4.56873083 1.0638857e-05 2.59660284e-06 -1.08404935e-06 -1.28646127e-06 2.46053651e-06 3.65498304 9.87809804e-07 -3.85694289 1.60597221e-06 -0.000103368067 -2.28342173e-06 2.74124193 5.30245552e-06 -1.32417189e-31 4.77083202e-15 -3.18055468e-15 0.0867470726 8.92170906 -2.26744461 6.80957985 0.0148239899 2.92639136 -1.77521828e-06 4.06110334 3.47415152e-06 -4.21608711e-05 -1.26005089e-05 -6.26602346e-08 2.47868387e-06 3.65496969 1.62214401e-05 -3.85694599 -5.88834773e-07 1.22265681e-06 3.25923997e-06 2.74124193 2.02966858e-07 -2.54444375e-14 -1.59027734e-15 3.53112504e-31 -0.173488364 7.97698593 -4.46720743 6.80957985 0.0148239899 2.92639136 2.65949074e-06 3.35041618 -4.9747573e-06 -5.35117942e-05 -3.56210875e-06 -5.32540247e-07 6.13296152e-06 2.84275675 -5.15320697e-06 -3.85694432 -1.61048172e-06 1.19567335e-06 -1.61533808e-05 2.63971496 6.2289264e-06 -4.62317292e-07 1.42723501e-07 2.97788514e-07 1.17407835 25.9241371 -0.520493567 0.557360828 -4.42292356 -15.1590395 2.8673296 3.95956898 2.94428039 6.0617752 5.51668194 17.4246958 -9.00383475e-06 3.35040426 -9.71211558e-06 -7.58342171 -6.09328127 -16.9098091 -2.92446157e-06 3.75651121 3.16099873e-07 0.000121733938 -9.87595747e-07 0.00109849905 1.71864109e-06 3.09999609 -2.96464896e-06 -1.90833281e-14 3.18055468e-15 -3.18055468e-15 0.0867439508 10.0309238 2.34528303 -27.4189053 -1.13860273 -2.28241014 -2.28319377e-07 4.06110811 -5.56616397e-06 0.000218172994 0.10865549 -0.00474557001 1.99676651e-05 3.24887204 -5.6258732e-06 3.2333796 0.070332408 0.00244990899 5.13682881e-06 2.63971233 -9.48777323e-06 1.27222187e-14 4.77083202e-15 3.18055468e-15 -0.104108177 9.50298786 0.00677218614 -27.4189053 -1.13860273 -2.28241014 1.47134925e-06 4.56874275 -1.24560065e-05 0.000116843796 0.108645506 -0.0047424729 4.99734779e-06 3.65497184 -4.94244479e-06 3.23338103 0.07033135 0.0018778157 -2.40191638e-06 2.74124122 1.06904072e-05 0 -6.36110936e-15 0 -0.0867570564 8.92171478 -2.26744914 -27.4189053 -1.13860273 -2.28241014 -2.28319377e-07 4.06110811 -5.56616397e-06 8.40353095e-05 0.108651526 -0.00474448828 7.4249283e-06 3.65498924 -4.20031256e-06 3.23338628 0.0703375861 0.00165854709 2.27324879e-06 2.74123645 6.59297984e-06 2.54444375e-14 0 0 0.173492044 7.97702932 -4.46721792 -27.4189053 -1.13860273 -2.28241014 1.20313489e-05 3.3504045 7.35300227e-06 -0.000610367861 0.108660065 -0.0047448054 -1.53201018e-05 2.84276652 8.0555592e-06 3.2333777 0.0703374147 0.00218698452 -1.54051917e-06 2.63970852 -6.76970648e-06 5.99951636e-06 -2.80906033e-06 1.58223212e-06
0 0 0 0 0 0 -10.299006134 24.8929386 -0.033801619 -0.630943954 3.99605584 -7.3050065 -2.86730528 3.95955896 2.94429684 -2.76948268 -5.4327135 47.5254147 2.37990389e-06 3.35039663 -4.45964907e-06 -4.87159967 -2.20631194 -38.828476 5.2657997e-06 3.75652218 5.93257119e-06 6.36110936e-15 -6.7586787e-15 3.18055468e-15 -1.35920336e-05 3.14734125 5.13127906e-06 -1.65521486e-32 -1.19270801e-15 1.59027734e-15 -0.0867625326 10.0308952 2.34528875 7.32102394 0.00347288325 2.92452502 -4.51679853e-06 4.06108856 4.42271086e-06 -2.84506732e-05 2.32226444e-06 -5.27600432e-07 3.63161462e-06 3.2488625 -1.6327456e-06 -3.93804407 4.39274602e-07 -0.000107175307 7.70182393e-06 2.63971233 1.93934171e-06 -5.87120772e-07 7.67349018e-07 -2.65565797e-07 0.104102969 9.50296307 0.00677372236 7.32102394 0.00347288325 2.92452502 -4.08745429e-06 4.56873083 1.0638857e-05 2.59660281e-06 -1.08404936e-06 -1.28646127e-06 2.46053651e-06 3.65498304 9.87809829e-07 -3.93804336 1.60597222e-06 -0.000103368067 -2.28342174e-06 2.74124193 5.30245551e-06 6.36110936e-15 -6.36110936e-15 -1.90833281e-14 0.0867470726 8.92170906 -2.26744461 7.32102394 0.00347288325 2.92452502 -1.77521826e-06 4.06110334 3.47415154e-06 -4.21608711e-05 -1.26005089e-05 -6.26602331e-08 2.47868389e-06 3.65496969 1.62214401e-05 -3.93804646 -5.8883478e-07 1.22265681e-06 3.25923998e-06 2.74124193 2.02966866e-07 1.90833281e-14 -7.9513867e-15 -1.43124961e-14 -0.173488364 7.97698593 -4.46720743 7.32102394 0.00347288325 2.92452502 2.65949074e-06 3.35041618 -4.97475732e-06 -5.35117943e-05 -3.56210875e-06 -5.32540239e-07 6.13296151e-06 2.84275675 -5.153207e-06 -3.9380424 -1.61048172e-06 1.19567335e-06 -1.61533808e-05 2.63971496 6.22892636e-06 -4.62317299e-07 1.42723488e-07 2.97788501e-07 1.17407835 25.9241371 -0.520493567 0.504020095 -4.42292356 -15.1739607 2.8673296 3.95956898 2.94428039 6.0617752 5.51668194 17.4246958 -9.00383479e-06 3.35040426 -9.71211561e-06 -7.58342171 -6.09328127 -16.9098091 -2.92446151e-06 3.75651121 3.16099888e-07 0.000121733938 -9.87595747e-07 0.00109849905 1.71864104e-06 3.09999609 -2.96464895e-06 4.4139063e-32 -3.18055468e-15 -1.59027734e-15 0.0867439508 10.0309238 2.34528303 -26.0423641 -1.01567996 -1.96427965 -2.28319386e-07 4.06110811 -5.56616397e-06 0.000218172994 0.10865549 -0.00474557001 1.99676651e-05 3.24887204 -5.62587319e-06 2.81669807 0.0612807944 0.00244990899 5.13682884e-06 2.63971233 -9.48777324e-06 1.27222187e-14 -1.43124961e-14 -9.54166404e-15 -0.104108177 9.50298786 0.00677218614 -26.0423641 -1.01567996 -1.96427965 1.47134925e-06 4.56874275 -1.24560065e-05 0.000116843796 0.108645506 -0.0047424729 4.99734779e-06 3.65497184 -4.94244477e-06 2.81669188 0.0612810068 0.0018778157 -2.4019164e-06 2.74124122 1.06904072e-05 2.11867502e-30 -1.90833281e-14 -1.27222187e-14 -0.0867570564 8.92171478 -2.26744914 -26.0423641 -1.01567996 -1.96427965 -2.28319386e-07 4.06110811 -5.56616397e-06 8.40353096e-05 0.108651526 -0.00474448828 7.4249283e-06 3.65498924 -4.20031257e-06 2.81669688 0.0612833165 0.00165854709 2.27324882e-06 2.74123645 6.59297981e-06 -6.36110936e-15 -1.59027734e-14 -6.36110936e-15 0.173492044 7.97702932 -4.46721792 -26.0423641 -1.01567996 -1.96427965 1.20313489e-05 3.3504045 7.35300228e-06 -0.000610367861 0.108660065 -0.0047448054 -1.53201017e-05 2.84276652 8.05555919e-06 2.81669617 0.0612848811 0.00218698452 -1.54051919e-06 2.63970852 -6.7697065e-06 5.99951632e-06 -2.80906034e-06 1.58223212e-06
0 0 0 0 0 0 -10.299006134 24.8929386 -0.033801619 -1.00083375 3.98778772 -7.11276865 -2.86730528 3.95955896 2.94429684 -2.76948268 -5.4327135 47.5254147 2.37990389e-06 3.35039663 -4.45964905e-06 -4.87159967 -2.20631194 -38.828476 5.26579973e-06 3.75652218 5.93257116e-06 -1.87591018e-31 -6.7586787e-15 3.18055468e-15 -1.35920337e-05 3.14734125 5.13127909e-06 5.51738287e-32 1.98784668e-15 3.18055468e-15 -0.0867625326 10.0308952 2.34528875 7.84737396 -0.00781374332 2.90272951 -4.51679851e-06 4.06108856 4.42271084e-06 -2.84506732e-05 2.32226444e-06 -5.27600438e-07 3.63161462e-06 3.2488625 -1.63274557e-06 -4.0068922 4.39274603e-07 -0.000107175307 7.70182394e-06 2.63971233 1.93934171e-06 -5.87120797e-07 7.67349023e-07 -2.65565791e-07 0.104102969 9.50296307 0.00677372236 7.84737396 -0.00781374332 2.90272951 -4.08745426e-06 4.56873083 1.0638857e-05 2.59660283e-06 -1.08404936e-06 -1.28646128e-06 2.4605365e-06 3.65498304 9.87809816e-07 -4.00688744 1.60597221e-06 -0.000103368067 -2.28342175e-06 2.74124193 5.30245552e-06 9.93128917e-31 -7.9513867e-15 -1.43124961e-14 0.0867470726 8.92170906 -2.26744461 7.84737396 -0.00781374332 2.90272951 -1.77521827e-06 4.06110334 3.47415151e-06 -4.21608711e-05 -1.26005089e-05 -6.2660241e-08 2.47868387e-06 3.65496969 1.62214401e-05 -4.00689411 -5.88834776e-07 1.22265681e-06 3.25923998e-06 2.74124193 2.02966865e-07 2.54444375e-14 -7.9513867e-15 -1.59027734e-14 -0.173488364 7.97698593 -4.46720743 7.84737396 -0.00781374332 2.90272951 2.65949076e-06 3.35041618 -4.97475731e-06 -5.35117942e-05 -3.56210876e-06 -5.32540249e-07 6.13296151e-06 2.84275675 -5.15320699e-06 -4.00688934 -1.61048172e-06 1.19567335e-06 -1.61533808e-05 2.63971496 6.22892635e-06 -4.62317267e-07 1.42723493e-07 2.97788498e-07 1.17407835 25.9241371 -0.520493567 0.427662998 -4.42292356 -15.1882935 2.8673296 3.95956898 2.94428039 6.0617752 5.51668194 17.4246958 -9.00383479e-06 3.35040426 -9.7121156e-06 -7.58342171 -6.09328127 -16.9098091 -2.92446151e-06 3.75651121 3.16099894e-07 0.000121733938 -9.87595742e-07 0.00109849905 1.71864103e-06 3.09999609 -2.96464896e-06 -1.90833281e-14 1.59027734e-15 -3.18055468e-15 0.0867439508 10.0309238 2.34528303 -24.8396282 -0.911903858 -1.66509533 -2.28319381e-07 4.06110811 -5.56616397e-06 0.000218172994 0.10865549 -0.00474557001 1.99676651e-05 3.24887204 -5.62587319e-06 2.41196537 0.0524751507 0.00244990899 5.13682883e-06 2.63971233 -9.48777322e-06 -6.36110936e-15 -1.43124961e-14 -1.27222187e-14 -0.104108177 9.50298786 0.00677218614 -24.8396282 -0.911903858 -1.66509533 1.47134927e-06 4.56874275 -1.24560065e-05 0.000116843796 0.108645506 -0.0047424729 4.99734779e-06 3.65497184 -4.94244479e-06 2.41195512 0.0524750985 0.0018778157 -2.40191638e-06 2.74124122 1.06904072e-05 -6.36110936e-15 -1.43124961e-14 -1.90833281e-14 -0.0867570564 8.92171478 -2.26744914 -24.8396282 -0.911903858 -1.66509533 -2.28319381e-07 4.06110811 -5.56616397e-06 8.40353096e-05 0.108651526 -0.00474448828 7.4249283e-06 3.65498924 -4.20031256e-06 2.4119556 0.0524787009 0.00165854709 2.2732488e-06 2.74123645 6.59297983e-06 1.27222187e-14 -1.27222187e-14 -6.36110936e-15 0.173492044 7.97702932 -4.46721792 -24.8396282 -0.911903858 -1.66509533 1.20313489e-05 3.3504045 7.35300228e-06 -0.000610367861 0.108660065 -0.0047448054 -1.53201017e-05 2.84276652 8.05555919e-06 2.41194749 0.05247619 0.00218698452 -1.54051919e-06 2.63970852 -6.76970649e-06 5.99951634e-06 -2.80906035e-06 1.58223212e-06
0 0 0 0 0 0 -10.299006134 24.8929386 -0.033801619 -1.40353143 3.9854548 -6.95458078 -2.86730528 3.95955896 2.94429684 -2.76948268 -5.4327135 47.5254147 2.37990389e-06 3.35039663 -4.45964906e-06 -4.87159967 -2.20631194 -38.828476 5.2657997e-06 3.75652218 5.93257119e-06 -2.54444375e-14 -1.11319414e-14 7.9513867e-15 -1.35920336e-05 3.14734125 5.13127905e-06 6.36110936e-15 -3.57812402e-15 4.77083202e-15 -0.0867625326 10.0308952 2.34528875 8.41300106 -0.0191160999 2.85744262 -4.51679852e-06 4.06108856 4.42271085e-06 -2.84506732e-05 2.32226443e-06 -5.27600435e-07 3.6316146e-06 3.2488625 -1.63274558e-06 -4.05109692 4.39274599e-07 -0.000107175307 7.70182395e-06 2.63971233 1.9393417e-06 -5.87120784e-07 7.67349019e-07 -2.65565797e-07 0.104102969 9.50296307 0.00677372236 8.41300106 -0.0191160999 2.85744262 -4.08745427e-06 4.56873083 1.0638857e-05 2.59660283e-06 -1.08404936e-06 -1.28646127e-06 2.46053652e-06 3.65498304 9.87809808e-07 -4.05110025 1.60597222e-06 -0.000103368067 -2.28342172e-06 2.74124193 5.30245551e-06 1.27222187e-14 -7.9513867e-15 -1.59027734e-14 0.0867470726 8.92170906 -2.26744461 8.41300106 -0.0191160999 2.85744262 -1.77521826e-06 4.06110334 3.47415153e-06 -4.21608711e-05 -1.26005089e-05 -6.26602346e-08 2.47868388e-06 3.65496969 1.62214401e-05 -4.05110741 -5.88834777e-07 1.2226568e-06 3.25923996e-06 2.74124193 2.0296688e-07 2.54444375e-14 -4.77083202e-15 -1.59027734e-14 -0.173488364 7.97698593 -4.46720743 8.41300106 -0.0191160999 2.85744262 2.65949074e-06 3.35041618 -4.97475731e-06 -5.35117942e-05 -3.56210876e-06 -5.32540246e-07 6.13296152e-06 2.84275675 -5.15320697e-06 -4.05110407 -1.61048172e-06 1.19567335e-06 -1.61533808e-05 2.63971496 6.22892636e-06 -4.6231728e-07 1.4272349e-07 2.97788499e-07 1.17407835 25.9241371 -0.520493567 0.295178324 -4.42292356 -15.2125311 2.8673296 3.95956898 2.94428039 6.0617752 5.51668194 17.4246958 -9.00383478e-06 3.35040426 -9.71211559e-06 -7.58342171 -6.09328127 -16.9098091 -2.92446153e-06 3.75651121 3.16099894e-07 0.000121733938 -9.87595748e-07 0.00109849905 1.71864105e-06 3.09999609 -2.96464899e-06 -6.36110936e-15 1.59027734e-15 -1.59027734e-15 0.0867439508 10.0309238 2.34528303 -24.1675434 -0.849847674 -1.45463526 -2.28319367e-07 4.06110811 -5.56616397e-06 0.000218172994 0.10865549 -0.00474557001 1.99676651e-05 3.24887204 -5.62587319e-06 2.07357287 0.0451161712 0.00244990899 5.13682883e-06 2.63971233 -9.48777322e-06 -6.36110936e-15 -1.43124961e-14 -1.27222187e-14 -0.104108177 9.50298786 0.00677218614 -24.1675434 -0.849847674 -1.45463526 1.47134925e-06 4.56874275 -1.24560065e-05 0.000116843796 0.108645506 -0.0047424729 4.99734779e-06 3.65497184 -4.94244478e-06 2.07356811 0.0451146662 0.0018778157 -2.40191638e-06 2.74124122 1.06904072e-05 -6.36110936e-15 -1.59027734e-14 -1.27222187e-14 -0.0867570564 8.92171478 -2.26744914 -24.1675434 -0.849847674 -1.45463526 -2.28319367e-07 4.06110811 -5.56616397e-06 8.40353095e-05 0.108651526 -0.00474448828 7.42492829e-06 3.65498924 -4.20031257e-06 2.07357812 0.0451155752 0.00165854709 2.27324879e-06 2.74123645 6.59297981e-06 6.36110936e-15 -1.11319414e-14 -4.77083202e-15 0.173492044 7.97702932 -4.46721792 -24.1675434 -0.849847674 -1.45463526 1.20313489e-05 3.3504045 7.35300227e-06 -0.000610367861 0.108660065 -0.0047448054 -1.53201017e-05 2.84276652 8.05555919e-06 2.07356453 0.0451167785 0.00218698452 -1.54051917e-06 2.63970852 -6.76970648e-06 5.99951634e-06 -2.80906034e-06 1.58223212e-06
